<svg aria-hidden="true" style="position: absolute; width: 0; height: 0; overflow: hidden;" version="1.1" xmlns="http://www.w3.org/2000/svg" xmlns:xlink="http://www.w3.org/1999/xlink">
<defs>
<symbol id="icon-logo_footer" viewBox="0 0 49 32">
<path fill="#9957db" style="fill: var(--color1, #9957db)" d="M32.174 16.651c0 8.477-7.202 15.349-16.087 15.349s-16.087-6.872-16.087-15.349c0-8.477 7.202-15.349 16.087-15.349s16.087 6.872 16.087 15.349z"></path>
<path fill="#8158bf" style="fill: var(--color2, #8158bf)" d="M49.333 16.651c0 8.477-7.202 15.349-16.087 15.349s-16.087-6.872-16.087-15.349c0-8.477 7.202-15.349 16.087-15.349s16.087 6.872 16.087 15.349z"></path>
<path fill="#8036ce" style="fill: var(--color3, #8036ce)" d="M24.667 29.322c4.511-2.719 7.507-7.519 7.507-12.986s-2.996-10.267-7.507-12.986c-4.511 2.719-7.507 7.519-7.507 12.986s2.996 10.267 7.507 12.986z"></path>
</symbol>
<symbol id="icon-star" viewBox="0 0 32 32">
<path fill="#6e2cbd" style="fill: var(--color4, #6e2cbd)" d="M12.204 7.211c1.689-3.029 2.533-4.544 3.796-4.544s2.107 1.515 3.796 4.544l0.437 0.784c0.48 0.861 0.72 1.292 1.093 1.576s0.84 0.389 1.773 0.6l0.848 0.192c3.28 0.743 4.919 1.113 5.309 2.368 0.389 1.253-0.728 2.561-2.964 5.176l-0.579 0.676c-0.635 0.743-0.953 1.115-1.096 1.573-0.143 0.46-0.095 0.956 0.001 1.947l0.088 0.903c0.337 3.489 0.507 5.233-0.515 6.008-1.021 0.776-2.557 0.068-5.627-1.345l-0.796-0.365c-0.872-0.403-1.308-0.603-1.771-0.603s-0.899 0.2-1.771 0.603l-0.795 0.365c-3.071 1.413-4.607 2.12-5.627 1.347-1.023-0.776-0.853-2.52-0.516-6.009l0.088-0.901c0.096-0.992 0.144-1.488 0-1.947-0.141-0.46-0.46-0.832-1.095-1.573l-0.579-0.677c-2.236-2.613-3.353-3.921-2.964-5.176 0.391-1.255 2.031-1.627 5.311-2.368l0.848-0.192c0.932-0.211 1.397-0.316 1.772-0.6 0.373-0.284 0.613-0.715 1.093-1.576l0.437-0.784z"></path>
</symbol>
<symbol id="icon-arrow_right" viewBox="0 0 54 32">
<path fill="#2c0e85" style="fill: var(--color5, #2c0e85)" d="M53.414 17.414c0.781-0.781 0.781-2.047 0-2.828l-12.728-12.728c-0.781-0.781-2.047-0.781-2.828 0s-0.781 2.047 0 2.828l11.314 11.314-11.314 11.314c-0.781 0.781-0.781 2.047 0 2.828s2.047 0.781 2.828 0l12.728-12.728zM0 18h52v-4h-52v4z"></path>
</symbol>
<symbol id="icon-arrow_left" viewBox="0 0 54 32">
<path fill="#2c0e85" style="fill: var(--color5, #2c0e85)" d="M0.586 17.414c-0.781-0.781-0.781-2.047 0-2.828l12.728-12.728c0.781-0.781 2.047-0.781 2.828 0s0.781 2.047 0 2.828l-11.314 11.314 11.314 11.314c0.781 0.781 0.781 2.047 0 2.828s-2.047 0.781-2.828 0l-12.728-12.728zM54 18h-52v-4h52v4z"></path>
</symbol>
<symbol id="icon-heart" viewBox="0 0 36 32">
<path fill="none" stroke="#4a3892" style="stroke: var(--color6, #4a3892)" stroke-linejoin="round" stroke-linecap="round" stroke-miterlimit="4" stroke-width="2.3704" d="M10.311 1.185c-5.040 0-9.126 4.251-9.126 9.495 0 9.495 5.926 9.468 16.593 20.135 11.259-10.667 16.593-10.64 16.593-20.135 0-5.244-4.086-9.495-9.126-9.495-3.086 0-5.816 1.594-7.467 4.035-0.841-1.247-1.959-2.265-3.259-2.967s-2.743-1.068-4.208-1.067z"></path>
</symbol>
<symbol id="icon-clock" viewBox="0 0 32 32">
<path d="M16 31.238c-8.416 0-15.238-6.822-15.238-15.238s6.822-15.238 15.238-15.238c8.416 0 15.238 6.822 15.238 15.238s-6.822 15.238-15.238 15.238zM16 28.191c3.233 0 6.334-1.284 8.62-3.57s3.57-5.387 3.57-8.62-1.284-6.334-3.57-8.62c-2.286-2.286-5.387-3.571-8.62-3.571s-6.334 1.284-8.62 3.571c-2.286 2.286-3.571 5.387-3.571 8.62s1.284 6.334 3.571 8.62c2.286 2.286 5.387 3.57 8.62 3.57zM17.524 16h6.095v3.048h-9.143v-10.667h3.048v7.619z"></path>
</symbol>
<symbol id="icon-pencil" viewBox="0 0 30 32">
<path fill="#3d2e87" style="fill: var(--color7, #3d2e87)" d="M2.133 30.017l-1.065-0.053-0.056 1.12h1.121v-1.067zM2.667 19.351l-0.754-0.754-0.291 0.291-0.021 0.41 1.065 0.053zM11.2 27.351l-0.754 0.754 0.771 0.771 0.754-0.788-0.771-0.737zM26.667 2.41v0zM6.621 21.263c-0.417-0.417-1.092-0.417-1.508 0s-0.417 1.092 0 1.508l1.508-1.508zM6.933 28.951h-4.8v2.133h4.8v-2.133zM3.199 30.071l0.533-10.667-2.131-0.106-0.533 10.667 2.131 0.107zM3.421 20.105l12.267-12.267-1.508-1.508-12.267 12.267 1.508 1.508zM22.163 14.347l-11.733 12.267 1.542 1.475 11.733-12.267-1.542-1.475zM14.933 7.084c0.864 0.626 0.864 0.626 0.863 0.626s-0 0-0 0 0-0 0-0 0.001-0.002 0.002-0.003 0.006-0.009 0.012-0.016c0.011-0.015 0.028-0.038 0.052-0.069 0.047-0.062 0.118-0.155 0.211-0.273 0.186-0.236 0.46-0.57 0.803-0.958 0.691-0.781 1.648-1.756 2.733-2.581 1.099-0.835 2.248-1.452 3.329-1.626 1.016-0.164 2.016 0.049 2.983 0.991l1.488-1.528c-1.479-1.441-3.169-1.834-4.812-1.569-1.578 0.255-3.056 1.105-4.279 2.034-1.236 0.939-2.296 2.025-3.040 2.865-0.374 0.422-0.673 0.788-0.88 1.050-0.104 0.131-0.184 0.236-0.24 0.31-0.028 0.037-0.050 0.066-0.065 0.086-0.008 0.010-0.013 0.018-0.018 0.024-0.002 0.003-0.004 0.005-0.005 0.007s-0.001 0.002-0.002 0.002-0 0.001-0.001 0.001-0 0.001 0.863 0.627zM25.923 3.175c0.94 0.915 1.224 1.961 1.123 3.093-0.105 1.181-0.635 2.46-1.363 3.688-0.721 1.216-1.592 2.307-2.291 3.1-0.348 0.395-0.649 0.711-0.861 0.927-0.106 0.108-0.19 0.191-0.246 0.246-0.028 0.027-0.049 0.048-0.063 0.061-0.007 0.006-0.012 0.011-0.015 0.014-0.001 0.001-0.002 0.002-0.003 0.003s-0 0-0 0 0-0 0-0 0-0 0.73 0.778 0.73 0.778 0.73 0.778 0.001-0 0.001-0.001 0.001-0.001 0.002-0.002 0.004-0.004 0.006-0.006 0.013-0.012 0.022-0.021c0.018-0.018 0.045-0.043 0.078-0.075 0.066-0.065 0.161-0.159 0.279-0.278 0.235-0.239 0.563-0.585 0.941-1.013 0.751-0.852 1.713-2.053 2.525-3.422 0.805-1.357 1.508-2.954 1.653-4.587 0.149-1.682-0.3-3.389-1.76-4.811l-1.488 1.528zM14.933 7.084c0.328 1.015 0.328 1.015 0.328 1.015s-0 0-0 0-0 0-0 0 0-0 0.001-0 0.004-0.001 0.007-0.002 0.020-0.006 0.036-0.011c0.034-0.010 0.086-0.026 0.154-0.045 0.137-0.039 0.338-0.093 0.587-0.153 0.501-0.119 1.183-0.253 1.919-0.322 0.742-0.069 1.499-0.067 2.164 0.062 0.666 0.13 1.165 0.372 1.495 0.722l1.551-1.465c-0.736-0.78-1.704-1.169-2.638-1.351-0.935-0.182-1.912-0.172-2.77-0.093-0.864 0.080-1.648 0.236-2.214 0.37-0.284 0.067-0.516 0.13-0.68 0.177-0.082 0.023-0.146 0.043-0.192 0.057-0.023 0.007-0.041 0.013-0.054 0.017-0.007 0.002-0.012 0.004-0.016 0.005-0.002 0.001-0.004 0.001-0.005 0.002s-0.001 0-0.002 0.001-0.001 0-0.001 0-0.001 0 0.328 1.015zM21.624 8.35c0.346 0.367 0.583 0.9 0.71 1.583 0.127 0.68 0.131 1.44 0.069 2.176-0.061 0.731-0.185 1.403-0.295 1.895-0.055 0.245-0.105 0.441-0.141 0.575-0.018 0.067-0.032 0.117-0.042 0.15-0.005 0.016-0.008 0.028-0.010 0.035-0.001 0.004-0.002 0.006-0.002 0.007s-0 0.001-0 0.001 0-0 0-0 0-0 0-0 0-0 1.020 0.313 1.020 0.313 1.020 0.313 0-0 0-0.001 0-0.001 0.001-0.002 0.001-0.003 0.002-0.005 0.003-0.009 0.005-0.015 0.009-0.030 0.015-0.053c0.013-0.045 0.031-0.108 0.052-0.188 0.043-0.16 0.101-0.388 0.163-0.666 0.124-0.555 0.267-1.326 0.338-2.18 0.071-0.848 0.076-1.814-0.098-2.745-0.173-0.929-0.536-1.894-1.256-2.657l-1.551 1.465zM11.954 26.596l-5.333-5.333-1.508 1.508 5.333 5.333 1.508-1.508z"></path>
</symbol>
<symbol id="icon-logo_header" viewBox="0 0 49 32">
<path fill="#7a69c2" style="fill: var(--color8, #7a69c2)" d="M32 16c0 8.837-7.163 16-16 16s-16-7.163-16-16c0-8.837 7.163-16 16-16s16 7.163 16 16z"></path>
<path fill="#d7d5e6" style="fill: var(--color9, #d7d5e6)" d="M49.067 16c0 8.837-7.163 16-16 16s-16-7.163-16-16c0-8.837 7.163-16 16-16s16 7.163 16 16z"></path>
<path fill="#988bd4" style="fill: var(--color10, #988bd4)" d="M24.533 29.207c4.487-2.834 7.467-7.838 7.467-13.537s-2.98-10.703-7.467-13.537c-4.487 2.834-7.467 7.838-7.467 13.537s2.98 10.703 7.467 13.537z"></path>
</symbol>
</defs>
</svg>
